<svg xmlns="http://www.w3.org/2000/svg" viewBox="0 0 1600 1000" role="img" aria-labelledby="t d">
  <title id="t">Professional Painter At Work</title>
  <desc id="d">Painter using a roller on a wall with tools nearby.</desc>
  <rect width="1600" height="1000" fill="#f7f1e7"/>
  <rect x="120" y="120" width="1360" height="760" rx="38" fill="#ffffff" stroke="#d6cfc2" stroke-width="8"/>
  <rect x="190" y="210" width="560" height="520" rx="24" fill="#e9f0f2"/>
  <rect x="820" y="210" width="590" height="520" rx="24" fill="#f2ece2"/>
  <rect x="920" y="250" width="320" height="26" rx="13" fill="#d97745"/>
  <rect x="1048" y="275" width="64" height="170" rx="18" fill="#155e73"/>
  <circle cx="980" cy="410" r="54" fill="#f0bf98"/>
  <rect x="930" y="468" width="100" height="140" rx="24" fill="#155e73"/>
  <rect x="930" y="604" width="42" height="100" rx="18" fill="#0e3946"/>
  <rect x="988" y="604" width="42" height="100" rx="18" fill="#0e3946"/>
  <rect x="210" y="760" width="1180" height="60" rx="20" fill="#ece4d8"/>
  <rect x="280" y="776" width="180" height="22" rx="11" fill="#d97745"/>
  <rect x="495" y="776" width="240" height="22" rx="11" fill="#155e73"/>
  <rect x="770" y="776" width="170" height="22" rx="11" fill="#d7ccbd"/>
</svg>
